# xmcd
# 
# Track frame offsets:
#     150
#     15713
#     26575
#     43468
#     53475
#     67835
#     81373
#     102928
#     116725
# 
# Disc length: 1788
# 
# Revision: 1
# Processed by: cddbd v1.5.2PL0 Copyright (c) Steve Scherf et al.
# Submitted via: BonkEnc v1.0.15
# 
DISCID=7106fa09
DTITLE=X-Mas-Project - Vol I
DYEAR=1987
DGENRE=Heavy Metal
TTITLE0=Mary's Little Boy Child
TTITLE1=Jingle Bells
TTITLE2=Leise rieselt der Schnee
TTITLE3=Winter Wonderland
TTITLE4=Oh Tannenbaum
TTITLE5=G.K.W.
TTITLE6=Silent Night, Holy Night
TTITLE7=White Christmas
TTITLE8=Alle Jahre wieder
EXTD=Shark Records 1987/1989\nCD SHARK 005\n\nFeaturing members of :\n\nRAGE - FACT - HOLY MOSES - LIVING DEATH - MEKONG DELTA - STEELER
EXTT0=
EXTT1=
EXTT2=
EXTT3=
EXTT4=
EXTT5=
EXTT6=
EXTT7=
EXTT8=
PLAYORDER=
